<?xml version="1.0" encoding="UTF-8" standalone="no"?>
<!DOCTYPE svg PUBLIC "-//W3C//DTD SVG 1.1//EN" "http://www.w3.org/Graphics/SVG/1.1/DTD/svg11.dtd">
<svg version="1.1" xmlns="http://www.w3.org/2000/svg" xmlns:xlink="http://www.w3.org/1999/xlink" preserveAspectRatio="xMidYMid meet" viewBox="180.5129037670192 142.06949438410447 47.37951788417223 46.308800239609326" width="64" height="62.42"><defs><path d="M203.2 143.07C191.22 143.07 181.51 152.78 181.51 164.76C181.51 174.34 187.73 182.47 196.35 185.34C197.43 185.54 197.83 184.87 197.83 184.29C197.83 183.78 197.81 182.42 197.8 180.61C191.76 181.92 190.49 177.7 190.49 177.7C189.5 175.19 188.08 174.53 188.08 174.53C186.11 173.18 188.23 173.21 188.23 173.21C190.41 173.36 191.55 175.44 191.55 175.44C193.49 178.76 196.63 177.8 197.87 177.25C198.06 175.84 198.62 174.89 199.24 174.35C194.43 173.8 189.36 171.94 189.36 163.63C189.36 161.26 190.21 159.32 191.6 157.81C191.37 157.26 190.63 155.05 191.81 152.07C191.81 152.07 193.63 151.48 197.77 154.29C199.5 153.81 201.36 153.57 203.2 153.56C205.04 153.57 206.9 153.81 208.63 154.29C212.77 151.48 214.59 152.07 214.59 152.07C215.78 155.05 215.03 157.26 214.81 157.81C216.2 159.32 217.04 161.26 217.04 163.63C217.04 171.96 211.97 173.79 207.13 174.33C207.91 175 208.61 176.32 208.61 178.35C208.61 181.24 208.58 183.58 208.58 184.29C208.58 184.88 208.97 185.55 210.07 185.34C218.68 182.46 224.89 174.34 224.89 164.76C224.89 152.78 215.18 143.07 203.2 143.07" id="c1nw9rsN0j"></path></defs><g><g><use xlink:href="#c1nw9rsN0j" opacity="1" fill="#1b1817" fill-opacity="1"></use><g><use xlink:href="#c1nw9rsN0j" opacity="1" fill-opacity="0" stroke="#000000" stroke-width="1" stroke-opacity="0"></use></g></g></g></svg>